<svg width="230" height="230" viewBox="0 0 230 230" fill="none" xmlns="http://www.w3.org/2000/svg">
<circle cx="115" cy="115" r="115" fill="#F6EDE4"/>
<path d="M90 125C91.4167 125 92.6042 124.521 93.5625 123.562C94.5208 122.604 95 121.417 95 120C95 118.583 94.5208 117.396 93.5625 116.438C92.6042 115.479 91.4167 115 90 115C88.5833 115 87.3958 115.479 86.4375 116.438C85.4792 117.396 85 118.583 85 120C85 121.417 85.4792 122.604 86.4375 123.562C87.3958 124.521 88.5833 125 90 125ZM90 105C91.4167 105 92.6042 104.521 93.5625 103.562C94.5208 102.604 95 101.417 95 100C95 98.5833 94.5208 97.3958 93.5625 96.4375C92.6042 95.4792 91.4167 95 90 95C88.5833 95 87.3958 95.4792 86.4375 96.4375C85.4792 97.3958 85 98.5833 85 100C85 101.417 85.4792 102.604 86.4375 103.562C87.3958 104.521 88.5833 105 90 105ZM100 125H145V115H100V125ZM100 105H145V95H100V105ZM95 160V150H75C72.25 150 69.8958 149.021 67.9375 147.062C65.9792 145.104 65 142.75 65 140V80C65 77.25 65.9792 74.8958 67.9375 72.9375C69.8958 70.9792 72.25 70 75 70H155C157.75 70 160.104 70.9792 162.063 72.9375C164.021 74.8958 165 77.25 165 80V140C165 142.75 164.021 145.104 162.063 147.062C160.104 149.021 157.75 150 155 150H135V160H95ZM75 140H155V80H75V140Z" fill="#4C5C13"/>
</svg>
