<svg width="230" height="230" viewBox="0 0 230 230" fill="none" xmlns="http://www.w3.org/2000/svg">
<circle cx="115" cy="115" r="115" fill="#F6EDE4"/>
<path d="M142.5 164C140.942 164 139.635 163.473 138.581 162.419C137.527 161.365 137 160.058 137 158.5V114.775C137 113.217 137.527 111.91 138.581 110.856C139.635 109.802 140.942 109.275 142.5 109.275H164.5C166.058 109.275 167.365 109.802 168.419 110.856C169.473 111.91 170 113.217 170 114.775V158.5C170 160.058 169.473 161.365 168.419 162.419C167.365 163.473 166.058 164 164.5 164H142.5ZM142.5 153H164.5V120.275H142.5V153ZM93 164V153H104V142H71C67.975 142 65.3854 140.923 63.2313 138.769C61.0771 136.615 60 134.025 60 131V76C60 72.975 61.0771 70.3854 63.2313 68.2313C65.3854 66.0771 67.975 65 71 65H148C151.025 65 153.615 66.0771 155.769 68.2313C157.923 70.3854 159 72.975 159 76V98.275H148V76H71V131H126V142H115V153H126V164H93ZM96.85 124.125L109.5 114.5L122.15 124.125L117.475 108.45L130.125 98.275H114.45L109.5 82.875L104.55 98.275H88.875L101.525 108.45L96.85 124.125Z" fill="#4C5C13"/>
</svg>
