<svg xmlns="http://www.w3.org/2000/svg" version="1.1" xmlns:xlink="http://www.w3.org/1999/xlink" width="77" height="104"><svg xmlns="http://www.w3.org/2000/svg" version="1.1" xmlns:xlink="http://www.w3.org/1999/xlink" width="77" height="104"><svg width="77" height="104" viewBox="0 0 77 104" fill="none" xmlns="http://www.w3.org/2000/svg">
<path d="M51.6309 65.392L44.6652 63.012L17.4949 11.0161L22.5298 6.18306L7.58633 50.0348L0 47.4427L16.1672 0L23.0638 2.35641L50.3485 54.4685L45.5271 58.4493L60.3764 14.8738L67.9628 17.4659L51.6309 65.392Z" fill="#4C5C13"></path>
<path d="M67.2353 102.978L65.6321 87.6553L67.5268 82.3287L65.6321 77.075L67.2353 61.6789H77L74.8139 82.3287L77 102.978H67.2353ZM70.1501 82.3287C69.2271 86.6581 67.6968 90.4524 65.5592 93.7116C63.4217 96.9708 60.774 99.5003 57.6163 101.3C54.5071 103.1 51.0336 104 47.1957 104C43.1635 104 39.5928 103.1 36.4837 101.3C33.3745 99.4517 30.9455 96.8978 29.1966 93.6386C27.4476 90.3794 26.5732 86.6094 26.5732 82.3287C26.5732 77.9993 27.4476 74.2293 29.1966 71.0187C30.9455 67.7595 33.3745 65.23 36.4837 63.4301C39.5928 61.5816 43.1635 60.6573 47.1957 60.6573C51.0336 60.6573 54.5071 61.5573 57.6163 63.3571C60.774 65.157 63.4217 67.6865 65.5592 70.9457C67.7454 74.1563 69.2757 77.9506 70.1501 82.3287ZM36.1922 82.3287C36.1922 85.1014 36.7509 87.558 37.8682 89.6984C39.0342 91.7901 40.613 93.444 42.6048 94.6602C44.5966 95.8276 46.8799 96.4114 49.4547 96.4114C52.0781 96.4114 54.5071 95.8276 56.7418 94.6602C58.9765 93.444 60.9441 91.7901 62.6444 89.6984C64.3933 87.558 65.7779 85.1014 66.798 82.3287C65.7779 79.5559 64.3933 77.1236 62.6444 75.0319C60.9441 72.8915 58.9765 71.2376 56.7418 70.0701C54.5071 68.854 52.0781 68.2459 49.4547 68.2459C46.8799 68.2459 44.5966 68.854 42.6048 70.0701C40.613 71.2376 39.0342 72.8915 37.8682 75.0319C36.7509 77.1236 36.1922 79.5559 36.1922 82.3287Z" fill="#4C5C13"></path>
</svg></svg><style>@media (prefers-color-scheme: light) { :root { filter: none; } }
@media (prefers-color-scheme: dark) { :root { filter: none; } }
</style></svg>