<svg width="230" height="230" viewBox="0 0 230 230" fill="none" xmlns="http://www.w3.org/2000/svg">
<circle cx="115" cy="115" r="115" fill="#F6EDE4"/>
<path d="M60 160V150H170V160H60ZM75 145C72.25 145 69.8958 144.021 67.9375 142.062C65.9792 140.104 65 137.75 65 135V80C65 77.25 65.9792 74.8958 67.9375 72.9375C69.8958 70.9792 72.25 70 75 70H155C157.75 70 160.104 70.9792 162.062 72.9375C164.021 74.8958 165 77.25 165 80V135C165 137.75 164.021 140.104 162.062 142.062C160.104 144.021 157.75 145 155 145H75ZM75 135H155V80H75V135Z" fill="#4C5C13"/>
</svg>
