<svg width="1926" height="1086" viewBox="0 0 1926 1086" fill="none" xmlns="http://www.w3.org/2000/svg">
<rect x="3" y="3" width="1920" height="1080" fill="#FEFEFE"/>
<rect x="3" y="654" width="380" height="212" rx="15" stroke="#FDC8A0" stroke-width="5"/>
<rect x="388" y="654" width="380" height="212" rx="15" stroke="#FDC8A0" stroke-width="5"/>
<rect x="773" y="654" width="380" height="212" rx="15" stroke="#FDC8A0" stroke-width="5"/>
<rect x="1158" y="654" width="380" height="212" rx="15" stroke="#FDC8A0" stroke-width="5"/>
<rect x="1543" y="654" width="380" height="212" rx="15" stroke="#FDC8A0" stroke-width="5"/>
<rect x="3" y="871" width="380" height="212" rx="15" stroke="#FDC8A0" stroke-width="5"/>
<rect x="388" y="871" width="380" height="212" rx="15" stroke="#FDC8A0" stroke-width="5"/>
<rect x="773" y="871" width="380" height="212" rx="15" stroke="#FDC8A0" stroke-width="5"/>
<rect x="1158" y="871" width="380" height="212" rx="15" stroke="#FDC8A0" stroke-width="5"/>
<rect x="1543" y="871" width="380" height="212" rx="15" stroke="#FDC8A0" stroke-width="5"/>
<rect x="3" y="220" width="380" height="212" rx="15" stroke="#FDC8A0" stroke-width="5"/>
<rect x="388" y="220" width="380" height="212" rx="15" stroke="#FDC8A0" stroke-width="5"/>
<rect x="773" y="220" width="380" height="212" rx="15" stroke="#FDC8A0" stroke-width="5"/>
<rect x="1158" y="220" width="380" height="212" rx="15" stroke="#FDC8A0" stroke-width="5"/>
<rect x="1543" y="220" width="380" height="212" rx="15" stroke="#FDC8A0" stroke-width="5"/>
<rect x="3" y="3" width="380" height="212" rx="15" stroke="#FDC8A0" stroke-width="5"/>
<rect x="388" y="3" width="380" height="212" rx="15" stroke="#FDC8A0" stroke-width="5"/>
<rect x="773" y="3" width="380" height="212" rx="15" stroke="#FDC8A0" stroke-width="5"/>
<rect x="1158" y="3" width="380" height="212" rx="15" stroke="#FDC8A0" stroke-width="5"/>
<rect x="1543" y="3" width="380" height="212" rx="15" stroke="#FDC8A0" stroke-width="5"/>
<rect x="3" y="437" width="380" height="212" rx="15" stroke="#FDC8A0" stroke-width="5"/>
<rect x="388" y="437" width="380" height="212" rx="15" stroke="#FDC8A0" stroke-width="5"/>
<rect x="773" y="437" width="380" height="212" rx="15" stroke="#FDC8A0" stroke-width="5"/>
<rect x="1158" y="437" width="380" height="212" rx="15" stroke="#FDC8A0" stroke-width="5"/>
<rect x="1543" y="437" width="380" height="212" rx="15" stroke="#FDC8A0" stroke-width="5"/>
</svg>
