<svg width="230" height="230" viewBox="0 0 230 230" fill="none" xmlns="http://www.w3.org/2000/svg">
<circle cx="115" cy="115" r="115" fill="#F6EDE4"/>
<path d="M164.269 109.275V153C164.269 156.025 163.197 158.615 161.053 160.769C158.908 162.923 156.331 164 153.32 164H76.6799C73.669 164 71.0915 162.923 68.9474 160.769C66.8033 158.615 65.7313 156.025 65.7313 153V109.275C63.6328 107.35 62.0133 104.875 60.8728 101.85C59.7323 98.825 59.7095 95.525 60.8044 91.95L66.5524 73.25C67.2823 70.8667 68.5825 68.8958 70.4528 67.3375C72.3232 65.7792 74.4901 65 76.9536 65H153.046C155.51 65 157.654 65.7563 159.479 67.2688C161.303 68.7813 162.626 70.775 163.448 73.25L169.196 91.95C170.29 95.525 170.268 98.7792 169.127 101.713C167.987 104.646 166.367 107.167 164.269 109.275ZM127.043 103.5C129.507 103.5 131.377 102.652 132.655 100.956C133.932 99.2604 134.434 97.3583 134.16 95.25L131.149 76H120.474V96.35C120.474 98.275 121.113 99.9479 122.39 101.369C123.668 102.79 125.219 103.5 127.043 103.5ZM102.409 103.5C104.508 103.5 106.218 102.79 107.541 101.369C108.864 99.9479 109.526 98.275 109.526 96.35V76H98.8508L95.8399 95.25C95.475 97.45 95.954 99.375 97.2769 101.025C98.5999 102.675 100.311 103.5 102.409 103.5ZM78.0484 103.5C79.6907 103.5 81.1277 102.904 82.3595 101.713C83.5912 100.521 84.3439 99.0083 84.6176 97.175L87.6285 76H76.9536L71.4793 94.425C70.9318 96.2583 71.2284 98.2292 72.3689 100.338C73.5093 102.446 75.4025 103.5 78.0484 103.5ZM151.952 103.5C154.597 103.5 156.513 102.446 157.7 100.338C158.886 98.2292 159.159 96.2583 158.521 94.425L152.773 76H142.372L145.382 97.175C145.656 99.0083 146.409 100.521 147.641 101.713C148.872 102.904 150.309 103.5 151.952 103.5ZM76.6799 153H153.32V114.225C152.864 114.408 152.567 114.5 152.431 114.5H151.952C149.488 114.5 147.321 114.088 145.451 113.263C143.58 112.438 141.733 111.108 139.908 109.275C138.266 110.925 136.395 112.208 134.297 113.125C132.198 114.042 129.963 114.5 127.591 114.5C125.127 114.5 122.824 114.042 120.68 113.125C118.535 112.208 116.642 110.925 115 109.275C113.449 110.925 111.647 112.208 109.594 113.125C107.541 114.042 105.329 114.5 102.957 114.5C100.311 114.5 97.9156 114.042 95.7715 113.125C93.6274 112.208 91.7342 110.925 90.0919 109.275C88.1759 111.2 86.2827 112.552 84.4123 113.331C82.5419 114.11 80.4206 114.5 78.0484 114.5H77.4326C77.2045 114.5 76.9536 114.408 76.6799 114.225V153Z" fill="#4C5C13"/>
</svg>
